<?xml version="1.0" standalone="no"?><!DOCTYPE svg PUBLIC "-//W3C//DTD SVG 1.1//EN" "http://www.w3.org/Graphics/SVG/1.1/DTD/svg11.dtd"><svg t="1554883519446" class="icon" style="" viewBox="0 0 1024 1024" version="1.1" xmlns="http://www.w3.org/2000/svg" p-id="3813" xmlns:xlink="http://www.w3.org/1999/xlink" width="200" height="200"><defs><style type="text/css"></style></defs><path d="M781.473684 970.105263H242.526316c-105.094737 0-188.631579-83.536842-188.631579-188.631579V242.526316c0-105.094737 83.536842-188.631579 188.631579-188.631579h398.821052v53.894737H242.526316c-75.452632 0-134.736842 59.284211-134.736842 134.736842v538.947368c0 75.452632 59.284211 134.736842 134.736842 134.736842h538.947368c75.452632 0 134.736842-59.284211 134.736842-134.736842V404.210526h53.894737v377.263158c0 105.094737-83.536842 188.631579-188.631579 188.631579z" fill="#bfbfbf" p-id="3814"></path><path d="M355.705263 644.042105L870.4 129.347368c18.863158-18.863158 43.115789-26.947368 53.894737-16.168421s2.694737 35.031579-16.168421 53.894737L393.431579 681.768421c-18.863158 18.863158-43.115789 26.947368-53.894737 16.168421s-2.694737-35.031579 16.168421-53.894737z" fill="#bfbfbf" p-id="3815"></path></svg>