<?xml version="1.0" standalone="no"?><!DOCTYPE svg PUBLIC "-//W3C//DTD SVG 1.1//EN" "http://www.w3.org/Graphics/SVG/1.1/DTD/svg11.dtd"><svg t="1554883560292" class="icon" style="" viewBox="0 0 1024 1024" version="1.1" xmlns="http://www.w3.org/2000/svg" p-id="4850" xmlns:xlink="http://www.w3.org/1999/xlink" width="200" height="200"><defs><style type="text/css"></style></defs><path d="M512 1024C229.2224 1024 0 794.7776 0 512S229.2224 0 512 0s512 229.2224 512 512-229.2224 512-512 512z m0-76.8a435.2 435.2 0 1 0 0-870.4 435.2 435.2 0 0 0 0 870.4z" fill="#969696" p-id="4851"></path><path d="M445.5424 761.7536a66.4576 66.4576 0 1 0 132.9152 0 66.4576 66.4576 0 0 0-132.9152 0zM651.6736 455.3728c-7.8336 8.8064-28.9792 28.2112-63.3856 58.3168-12.7488 9.4208-23.04 21.76-30.0032 35.9936-3.2256 7.7312-5.632 15.7696-7.168 24.064a42.496 42.496 0 0 1-40.8064 33.28 42.496 42.496 0 0 1-42.496-47.9744c1.9456-11.3152 5.3248-22.3744 10.0864-32.8704a395.1104 395.1104 0 0 1 86.1696-93.6448l8.8576-10.2912a84.48 84.48 0 0 0 0-109.9776 79.9232 79.9232 0 0 0-59.0336-20.6336 77.7728 77.7728 0 0 0-69.376 30.2592 93.5936 93.5936 0 0 0-15.616 38.656 42.1888 42.1888 0 0 1-82.5856-17.5104 150.528 150.528 0 0 1 43.9296-78.0288 177.664 177.664 0 0 1 129.1776-46.336 168.0384 168.0384 0 0 1 116.4288 39.1168c29.3888 27.136 45.0048 66.1504 42.496 106.0864a146.176 146.176 0 0 1-26.4192 90.7776l-0.256 0.7168z" fill="#969696" p-id="4852"></path></svg>