<?xml version="1.0" standalone="no"?><!DOCTYPE svg PUBLIC "-//W3C//DTD SVG 1.1//EN" "http://www.w3.org/Graphics/SVG/1.1/DTD/svg11.dtd"><svg t="1554883491666" class="icon" style="" viewBox="0 0 1024 1024" version="1.1" xmlns="http://www.w3.org/2000/svg" p-id="2960" xmlns:xlink="http://www.w3.org/1999/xlink" width="200" height="200"><defs><style type="text/css"></style></defs><path d="M113.92 314.4192c56.9856-152.7296 212.48-263.0144 396.3904-263.0144 183.9616 0 339.456 109.6704 396.4416 262.4 40.8064 20.9408 67.9936 61.5936 67.9936 107.776 0 68.352-59.5968 123.8016-132.7616 123.8016V298.3936c3.8912 0 7.1168 0 11.008 0.6144-58.9312-121.344-189.7984-206.336-342.6816-206.336-152.2176 0-283.648 84.3776-342.6304 206.336 3.2256 0 7.168-0.6144 11.008-0.6144v246.9888C105.472 545.3824 45.8752 489.984 45.8752 421.5808c0-45.568 27.2384-86.2208 68.0448-107.1616" fill="#B3B7BF" p-id="2961"></path><path d="M797.2864 443.136c0 147.8144-128.9216 267.3152-286.976 267.3152-158.72 0-286.9248-119.5008-286.9248-267.264 0-147.8656 128.256-267.3664 286.9248-267.3664 158.72-0.6144 286.976 119.5008 286.976 267.3152" fill="#B3B7BF" p-id="2962"></path><path d="M1.8432 1022.1056c0-155.8016 88.064-270.336 222.208-334.4384 75.1104 65.28 175.5136 104.704 286.2592 104.704 110.7968 0 211.8144-40.0384 286.3104-105.3184 135.3728 64.0512 225.4336 179.2 225.4336 335.0528H1.8432" fill="#B3B7BF" p-id="2963"></path></svg>