<?xml version="1.0" standalone="no"?><!DOCTYPE svg PUBLIC "-//W3C//DTD SVG 1.1//EN" "http://www.w3.org/Graphics/SVG/1.1/DTD/svg11.dtd"><svg t="1556025598279" class="icon" style="" viewBox="0 0 1024 1024" version="1.1" xmlns="http://www.w3.org/2000/svg" p-id="2148" xmlns:xlink="http://www.w3.org/1999/xlink" width="200" height="200"><defs><style type="text/css"></style></defs><path d="M510.404984 1024c-137.17134 0-264.772586-54.23053-360.47352-149.931464S0 650.766355 0 513.595016 54.23053 252.012461 149.931464 153.121495c95.700935-95.700935 223.302181-149.931464 360.47352-149.931464s264.772586 54.23053 360.473521 149.931464 149.931464 223.302181 149.931464 360.473521-54.23053 264.772586-149.931464 360.47352c-98.890966 98.890966-226.492212 149.931464-360.473521 149.931464z" fill="#525E5A" p-id="2149"></path><path d="M497.64486 277.53271l-108.461059 66.990654c-15.950156 9.570093-28.71028 12.760125-47.850468 12.760125H287.102804c-44.660436 0-79.750779 35.090343-79.750779 79.750779v156.311526c0 47.850467 38.280374 86.130841 86.130841 86.130842h63.800623c15.950156 0 31.900312 3.190031 47.850467 12.760124l92.510904 57.420561c6.380062 3.190031 15.950156 6.380062 22.330218 6.380062 25.520249 0 44.660436-19.140187 44.660436-44.660436V315.813084c0-6.380062-3.190031-15.950156-6.380062-22.330218-12.760125-22.330218-41.470405-28.71028-60.610592-15.950156z m22.330218 437.034268l-92.510904-57.420561c-22.330218-12.760125-44.660436-19.140187-70.180685-19.140186h-63.800623c-22.330218 0-41.470405-19.140187-41.470405-41.470405v-156.311527c0-19.140187 15.950156-35.090343 35.090343-35.090343h54.230529c25.520249 0 47.850467-6.380062 70.180686-19.140187l108.461059-66.990654v395.563863z m267.962617-223.30218h-133.981309c-12.760125 0-22.330218 9.570093-22.330218 22.330218 0 12.760125 9.570093 22.330218 22.330218 22.330218h133.981309c12.760125 0 22.330218-9.570093 22.330218-22.330218 0-9.570093-9.570093-22.330218-22.330218-22.330218z m-9.570094 191.401869l-114.841121-66.990655c-9.570093-6.380062-25.520249-3.190031-28.710281 6.380063-6.380062 9.570093-3.190031 25.520249 6.380063 28.71028l114.841121 66.990654c9.570093 6.380062 25.520249 3.190031 28.710281-6.380062 9.570093-9.570093 6.380062-22.330218-6.380063-28.71028zM663.52648 414.70405l114.841121-66.990654c9.570093-6.380062 15.950156-19.140187 6.380063-28.710281-6.380062-9.570093-19.140187-15.950156-28.710281-6.380062l-114.841121 66.990654c-9.570093 6.380062-15.950156 19.140187-6.380063 28.710281 3.190031 9.570093 15.950156 12.760125 28.710281 6.380062z m0 0" fill="#FFFFFF" p-id="2150"></path></svg>