<?xml version="1.0" standalone="no"?><!DOCTYPE svg PUBLIC "-//W3C//DTD SVG 1.1//EN" "http://www.w3.org/Graphics/SVG/1.1/DTD/svg11.dtd"><svg t="1554886894170" class="icon" style="" viewBox="0 0 1024 1024" version="1.1" xmlns="http://www.w3.org/2000/svg" p-id="2458" xmlns:xlink="http://www.w3.org/1999/xlink" width="200" height="200"><defs><style type="text/css"></style></defs><path d="M68.464 854.432a22.032 22.032 0 0 1-20.032-21.584c-2.544-154.128 39.712-276.528 125.584-363.824 55.792-56.72 128.464-97.264 215.984-120.496a601.216 601.216 0 0 1 129.648-19.616V138.928a22.064 22.064 0 0 1 34.992-17.808l422.064 307.376a22.08 22.08 0 0 1-0.048 35.616L554.56 770.096a21.904 21.904 0 0 1-22.912 1.776 21.984 21.984 0 0 1-12.016-19.6V573.344c-151.936 3.952-273.088 49.264-351.408 131.648-61.488 64.688-75.92 130.512-76.224 131.888a22.016 22.016 0 0 1-23.536 17.552z m495.2-303.408v158.096l362.592-262.88-362.592-264.048V350.72a21.984 21.984 0 0 1-22.848 21.984c-0.016 0-2.016-0.064-5.664-0.064-34.16 0-210.608 6.128-329.744 127.264-55.392 56.288-90.592 129.632-105.232 218.848 9.6-13.68 20.912-27.872 34.192-42.032 40.4-43.152 90.944-77.472 150.16-102.032 73.04-30.304 159.552-45.664 257.12-45.664 12.176 0 22.016 9.856 22.016 22z" fill="#39B54A" p-id="2459"></path><path d="M67.008 870.688a38.272 38.272 0 0 1-34.88-37.568c-2.64-158.624 41.2-284.992 130.256-375.536 57.888-58.832 133.056-100.816 223.456-124.816a619.856 619.856 0 0 1 117.488-19.344V138.928c0-14.48 8.016-27.584 20.976-34.16a38.976 38.976 0 0 1 39.952 3.184l422.08 307.392c9.856 7.184 15.744 18.768 15.744 31.008a38.48 38.48 0 0 1-15.84 31.008L564.16 783.296a38.864 38.864 0 0 1-39.888 3.12 38.096 38.096 0 0 1-20.96-34.144V590.256c-139.536 6.64-251.04 50.048-323.264 125.968-57.952 60.992-71.92 123.408-72.032 123.888a38.432 38.432 0 0 1-41.008 30.576z m468.944-118.4a5.6 5.6 0 0 0 3.136 5.072c1.856 0.944 4.176 0.8 5.888-0.464l422.096-305.984a5.712 5.712 0 0 0 0-9.232L545.024 134.336c-2.576-1.904-4.416-1.296-5.952-0.496a5.728 5.728 0 0 0-3.12 5.088V344.64l-15.696 0.576a582.4 582.4 0 0 0-126.064 19.088c-84.656 22.464-154.816 61.552-208.544 116.16-82.688 84.08-123.36 202.544-120.896 352.128a5.696 5.696 0 0 0 5.264 5.616l0.448 0.016a5.76 5.76 0 0 0 5.584-4.624c0.144-0.736 15.376-71.504 80.352-139.856 81.152-85.344 206.624-132.624 362.816-136.704l16.736-0.432v195.68zM84.096 716.112c15.152-92.496 52.08-169.104 109.68-227.648 123.712-125.776 306.08-132.144 341.392-132.144 3.696 0 5.824 0.064 6.48 0.08a5.712 5.712 0 0 0 5.696-5.68V150.128l406.656 296.144L547.36 741.088V551.024a5.712 5.712 0 0 0-5.696-5.68c-95.44 0-179.824 14.944-250.896 44.4-57.072 23.664-105.664 56.688-144.496 98.144a367.76 367.76 0 0 0-32.736 40.224l-41.008 58.416 11.568-70.416z m495.888-501.856v136.464c0 10.336-4.288 20.384-11.744 27.616-7.152 6.88-16.576 10.672-27.792 10.672h-0.112l-5.152-0.048c-33.04 0-203.552 5.904-318.128 122.384-38.688 39.312-67.232 87.776-85.248 144.592 40.336-40.336 89.552-72.72 146.48-96.336 75.04-31.104 163.648-46.896 263.376-46.896a38.384 38.384 0 0 1 38.336 38.32v126.128l318.528-230.944-318.544-231.952z" fill="#39B54A" p-id="2460"></path></svg>