<?xml version="1.0" standalone="no"?><!DOCTYPE svg PUBLIC "-//W3C//DTD SVG 1.1//EN" "http://www.w3.org/Graphics/SVG/1.1/DTD/svg11.dtd"><svg t="1554883587091" class="icon" style="" viewBox="0 0 1072 1024" version="1.1" xmlns="http://www.w3.org/2000/svg" p-id="5678" xmlns:xlink="http://www.w3.org/1999/xlink" width="209.375" height="200"><defs><style type="text/css"></style></defs><path d="M1054.333776 394.649786a28.657912 28.657912 0 0 0-31.467511-21.352954A133.175001 133.175001 0 0 1 899.243902 159.205375a28.095992 28.095992 0 0 0 0-38.210549A536.633442 536.633442 0 0 0 692.457403 1.305902a28.095992 28.095992 0 0 0-34.27711 15.733755A137.10844 137.10844 0 0 1 533.99601 101.889552 137.10844 137.10844 0 0 1 409.811726 18.725417 28.095992 28.095992 0 0 0 375.534616 1.305902 535.509602 535.509602 0 0 0 168.748117 121.556746a28.095992 28.095992 0 0 0 0 37.648629 132.051161 132.051161 0 0 1 10.114557 147.784917A133.175001 133.175001 0 0 1 45.125754 372.172992a27.534072 27.534072 0 0 0-31.467511 22.476794 521.461606 521.461606 0 0 0 0 237.13017 27.534072 27.534072 0 0 0 31.467511 21.352953 133.175001 133.175001 0 0 1 133.175 65.182701A132.051161 132.051161 0 0 1 168.748117 865.538607a28.095992 28.095992 0 0 0 3.371519 37.648629 534.947682 534.947682 0 0 0 205.66266 119.127004h8.428797a28.095992 28.095992 0 0 0 25.848313-17.419514 133.175001 133.175001 0 0 1 121.936604-81.478376 136.54652 136.54652 0 0 1 124.184283 83.164135 28.095992 28.095992 0 0 0 34.27711 15.733755A535.509602 535.509602 0 0 0 899.243902 903.749155a28.095992 28.095992 0 0 0 3.371519-37.648628 132.613081 132.613081 0 0 1-10.114557-147.784917 133.175001 133.175001 0 0 1 133.175001-65.182701 28.657912 28.657912 0 0 0 31.46751-21.352953 523.147366 523.147366 0 0 0 0-237.13017z m-50.010865 201.1673a189.366984 189.366984 0 0 0-163.518672 280.959917 482.127218 482.127218 0 0 1-142.727638 83.164136 193.300423 193.300423 0 0 0-164.080591-92.716773 188.805064 188.805064 0 0 0-162.956752 94.402532A479.879538 479.879538 0 0 1 224.940101 877.900843a189.366984 189.366984 0 0 0-163.518672-280.959917A469.203062 469.203062 0 0 1 56.36415 512.652951a475.38418 475.38418 0 0 1 7.304958-82.602216A188.243144 188.243144 0 0 0 224.940101 335.086283a188.243144 188.243144 0 0 0 0-188.243144 473.69842 473.69842 0 0 1 144.975317-83.164136A193.862343 193.862343 0 0 0 533.99601 158.081535a194.424263 194.424263 0 0 0 164.080591-93.840612A481.565298 481.565298 0 0 1 843.051918 146.281219a189.366984 189.366984 0 0 0 163.518672 280.959917 461.336184 461.336184 0 0 1 0 165.204431z" fill="#B5B5B5" p-id="5679"></path><path d="M533.99601 325.533646a187.119305 187.119305 0 1 0 187.119304 187.119305A187.119305 187.119305 0 0 0 533.99601 325.533646z m0 318.046626a130.927321 130.927321 0 1 1 130.927321-130.927321 130.927321 130.927321 0 0 1-130.927321 130.927321z" fill="#B5B5B5" p-id="5680"></path></svg>