<?xml version="1.0" standalone="no"?><!DOCTYPE svg PUBLIC "-//W3C//DTD SVG 1.1//EN" "http://www.w3.org/Graphics/SVG/1.1/DTD/svg11.dtd"><svg t="1554883808952" class="icon" style="" viewBox="0 0 1024 1024" version="1.1" xmlns="http://www.w3.org/2000/svg" p-id="6706" xmlns:xlink="http://www.w3.org/1999/xlink" width="200" height="200"><defs><style type="text/css"></style></defs><path d="M512 385.706667m-126.293333 0a126.293333 126.293333 0 1 0 252.586666 0 126.293333 126.293333 0 1 0-252.586666 0Z" fill="#C5CCD5" p-id="6707"></path><path d="M339.626667 597.674667h345.088c122.538667 0 225.962667 87.722667 249.856 203.434666 56.32-82.261333 89.429333-181.930667 89.429333-289.109333C1024 229.376 794.624 0 512 0S0 229.376 0 512c0 107.178667 33.109333 206.848 89.429333 289.109333 24.234667-115.712 127.317333-203.434667 250.197334-203.434666zM512 174.08c116.736 0 211.626667 94.890667 211.626667 211.626667s-94.890667 211.626667-211.626667 211.626666-211.626667-94.890667-211.626667-211.626666 94.890667-211.626667 211.626667-211.626667z" fill="#C5CCD5" p-id="6708"></path><path d="M667.648 679.594667h-310.954667c-109.568 0-199.338667 89.770667-199.338666 199.338666v2.389334C249.173333 969.728 374.442667 1024 512 1024s262.826667-54.272 354.645333-142.677333v-2.389334c0-109.909333-89.429333-199.338667-198.997333-199.338666z" fill="#C5CCD5" p-id="6709"></path></svg>