<?xml version="1.0" standalone="no"?><!DOCTYPE svg PUBLIC "-//W3C//DTD SVG 1.1//EN" "http://www.w3.org/Graphics/SVG/1.1/DTD/svg11.dtd"><svg t="1555383636061" class="icon" style="" viewBox="0 0 1024 1024" version="1.1" xmlns="http://www.w3.org/2000/svg" p-id="2100" xmlns:xlink="http://www.w3.org/1999/xlink" width="200" height="200"><defs><style type="text/css"></style></defs><path d="M622.592 333.824s124.928 78.848 126.464 238.592c1.536 159.744-24.576 228.352-90.112 285.184-65.536 56.832-125.44 48.64-147.456 15.872-13.824-20.48-8.192-111.104-5.12-134.144 3.072-23.04-58.88 99.84-40.448 136.192s23.04 143.36 214.528 55.808c36.864-37.888 146.944-108.032 95.232-450.56-65.024-109.568-69.632-120.832-153.088-146.944z" fill="#DFDFDE" p-id="2101"></path><path d="M382.976 197.632c0-75.264-60.928-136.192-136.192-136.192-75.264 0-136.192 60.928-136.192 136.192 0 75.264 60.928 136.192 136.192 136.192 74.752 0 136.192-60.928 136.192-136.192z m-136.704 100.864c-55.808 0-100.864-45.568-100.864-100.864 0-55.808 45.568-100.864 100.864-100.864 55.808 0 100.864 45.568 100.864 100.864 0 55.808-45.056 100.864-100.864 100.864zM835.072 165.376c-37.888 0-68.096 30.72-68.608 68.608 0 37.888 30.72 68.096 68.608 68.608 37.888 0 68.096-30.72 68.608-68.608 0-37.888-30.72-68.608-68.608-68.608z" fill="#989898" p-id="2102"></path><path d="M835.072 278.016c-24.576 0-44.544-19.968-44.544-44.544 0-24.576 19.968-44.544 44.544-44.544 24.576 0 44.544 19.968 44.544 44.544 0 24.576-19.968 44.544-44.544 44.544z" fill="#DFDFDE" p-id="2103"></path><path d="M680.448 216.576c37.888 0 68.096-30.72 68.608-68.608 0-37.888-30.72-68.608-68.608-68.608s-68.608 30.72-68.608 68.608c0.512 37.888 31.232 68.608 68.608 68.608z" fill="#989898" p-id="2104"></path><path d="M680.448 103.936c24.576 0 44.544 19.968 44.544 44.544 0 24.576-19.968 44.544-44.544 44.544-24.576 0-44.544-19.968-44.544-44.544 0.512-24.576 20.48-44.544 44.544-44.544z" fill="#DFDFDE" p-id="2105"></path><path d="M489.984 200.192c37.888 0 68.608-30.72 68.608-68.608s-30.72-68.608-68.608-68.608-68.608 30.72-68.608 68.608 30.72 68.608 68.608 68.608z" fill="#989898" p-id="2106"></path><path d="M489.984 87.552c24.576 0 44.544 19.968 44.544 44.544 0 24.576-19.968 44.544-44.544 44.544-24.576 0-44.544-19.968-44.544-44.544 0-24.576 19.968-44.544 44.544-44.544z" fill="#DFDFDE" p-id="2107"></path><path d="M801.28 525.824c-8.704-53.76-26.624-99.84-53.76-136.704-22.016-30.72-51.712-56.32-84.992-74.24-60.416-32.768-122.368-36.352-145.92-36.352-6.656 0-10.752 0.512-11.264 0.512-83.968 11.264-135.68 50.688-163.84 82.432-28.16 31.232-39.424 59.904-41.984 66.048 0 0.512-0.512 1.536-0.512 2.048-19.968 81.408 7.168 128 43.52 159.232l1.536 1.536c4.096 3.584 8.192 6.656 12.288 9.728 1.536 1.024 3.584 2.048 5.632 2.56 18.944 11.776 45.568 26.624 60.928 35.84 1.024 0.512 1.536 1.024 2.048 1.536 11.264 6.656 20.48 13.312 25.6 20.48 33.792 47.104 19.456 100.864 7.68 143.872-3.584 13.824-7.168 26.624-8.704 37.888-5.12 38.4 2.048 69.632 21.504 93.696 35.328 43.52 98.304 47.104 117.248 47.104 11.264 0 21.504-1.024 30.208-3.072 45.568-10.24 84.48-34.304 114.176-71.168 25.6-31.744 45.568-73.216 58.368-123.904 23.552-92.16 20.48-194.048 10.24-259.072z m-44.544 247.808c-24.576 95.744-73.728 152.576-145.92 168.448-3.584 1.024-11.264 2.048-23.04 2.048-30.208 0-70.144-8.704-90.112-33.792-12.8-15.36-16.896-36.352-13.312-64 1.024-8.704 4.096-19.968 7.68-32.768v-0.512c6.144-23.552 13.312-50.176 14.336-79.36 1.024-36.864-8.192-69.12-28.16-97.28-8.704-11.776-20.48-20.992-34.816-29.696l-66.56-38.4c-11.776-8.192-22.016-17.408-30.72-28.16-19.456-25.6-24.064-58.368-13.824-100.864v-0.512c4.096-10.752 44.032-105.472 175.616-123.392h8.192c50.176 0 217.088 15.872 249.856 216.576 10.24 60.928 12.8 156.672-9.216 241.664z" fill="#989898" p-id="2108"></path></svg>