<?xml version="1.0" standalone="no"?><!DOCTYPE svg PUBLIC "-//W3C//DTD SVG 1.1//EN" "http://www.w3.org/Graphics/SVG/1.1/DTD/svg11.dtd"><svg t="1556025704427" class="icon" style="" viewBox="0 0 1024 1024" version="1.1" xmlns="http://www.w3.org/2000/svg" p-id="3698" xmlns:xlink="http://www.w3.org/1999/xlink" width="200" height="200"><defs><style type="text/css"></style></defs><path d="M1005.04999 962.529991q-1.28-0.55-2.63-1C983.27999 954.999991 928.529991 929.069991 928.529991 895.999991c0-13.68 9.82-21.61 33.92-37.739999 26.16-17.51 61.999999-41.49 61.999999-90.259999 0-49.64-36.11-73.589999-62.469999-91.08-23.76-15.76-33.43-23.51-33.43-36.919999 0-14.17 9.84-22.07 34-38 26.18-17.26 61.999999-40.9 61.999999-89.939999s-36-73.059999-62.219999-90.519999c-24-16-33.81-23.85-33.81-37.54 0-33.11 54.589999-59.169999 73.639999-65.659999A32 32 0 0 0 991.99999 255.999998H932.279991l-145.839999-34.74L400.279996 4.11a32 32 0 0 0-34.61 2.09L247.459998 92.899999l-113.489999-27a32 32 0 0 0-37.83 21.2L41 255.999998h-9a32 32 0 0 0-32 31.999999v703.999993a32 32 0 0 0 32 32h960.55999a32 32 0 0 0 12.49-61.469999zM386.919996 69.999999l173.059999 97.329999-230.819998-54.999999z m-239.089997 65l508.229995 120.999999H108.279999z m716.699993 760.999992c0 17.48 4.84 40.44 23.519999 64H63.999999V321.999997a31.91 31.91 0 0 0 10.63-2h813.369992c-18.63 23.58-23.46 46.53-23.459999 63.999999 0 49.35 36 73.319999 62.369999 90.829999 23.92 15.91 33.66 23.73 33.66 37.23 0 12.67-7.49 19.52-33.26 36.51C900.809991 565.999994 864.529992 589.999994 864.529992 639.999994c0 49.08 35.86 72.869999 61.999999 90.249999 24.05 16 33.85 23.84 33.85 37.75 0 13.27-9.72 21.1-33.58 37.069999-26.25 17.61-62.269999 41.72-62.269999 90.929999z" fill="" p-id="3699"></path><path d="M512.559995 608.829994a32 32 0 1 0 0-63.999999h-82.689999L503.279995 471.469995a32 32 0 0 0-45.229999-45.279999L352.629997 531.529995 246.279998 424.599996a32 32 0 0 0-45.37 45.139999l74.709999 75.1h-82.999999a32 32 0 0 0 0 63.999999h127.999999v63.999999h-127.999999a32 32 0 0 0 0 64h127.999999v95.999999a32 32 0 0 0 63.999999 0v-95.999999h127.999999a32 32 0 1 0 0-64h-127.999999v-63.999999z" fill="" p-id="3700"></path><path d="M640.419994 336.329997l63.999999 0 0 127.999998-63.999999 0 0-127.999998Z" fill="" p-id="3701"></path><path d="M640.419994 496.169995l63.999999 0 0 127.999999-63.999999 0 0-127.999999Z" fill="" p-id="3702"></path><path d="M640.419994 655.999994l63.999999 0 0 127.999998-63.999999 0 0-127.999998Z" fill="" p-id="3703"></path><path d="M640.419994 815.999992l63.999999 0 0 127.999999-63.999999 0 0-127.999999Z" fill="" p-id="3704"></path></svg>