<?xml version="1.0" standalone="no"?><!DOCTYPE svg PUBLIC "-//W3C//DTD SVG 1.1//EN" "http://www.w3.org/Graphics/SVG/1.1/DTD/svg11.dtd"><svg t="1559465658585" class="icon" style="" viewBox="0 0 1024 1024" version="1.1" xmlns="http://www.w3.org/2000/svg" p-id="2302" xmlns:xlink="http://www.w3.org/1999/xlink" width="200" height="200"><defs><style type="text/css"></style></defs><path d="M512 10.971429C226.742857 10.971429 0 234.057143 0 515.657143S226.742857 1024 512 1024s512-226.742857 512-504.685714S793.6 10.971429 512 10.971429M47.542857 515.657143C47.542857 263.314286 256 54.857143 512 54.857143s464.457143 208.457143 464.457143 460.8S768 976.457143 512 976.457143 47.542857 768 47.542857 515.657143" fill="#2BC27E" p-id="2303"></path><path d="M742.4 354.742857s0 3.657143-3.657143 3.657143l-252.342857 387.657143H358.4l-40.228571-354.742857c0-14.628571-3.657143-21.942857-10.971429-32.914286-10.971429-7.314286-14.628571-10.971429-29.257143-10.971429l3.657143-14.628571H402.285714c14.628571 0 21.942857 3.657143 29.257143 10.971429 3.657143 3.657143 10.971429 14.628571 14.628572 29.257142l21.942857 248.685715 131.657143-237.714286 3.657142-10.971429V365.714286c0-3.657143-3.657143-10.971429-10.971428-14.628572-3.657143-3.657143-10.971429-3.657143-18.285714-3.657143l3.657142-14.628571h135.314286c10.971429 0 14.628571 0 21.942857 3.657143 3.657143 3.657143 3.657143 3.657143 3.657143 10.971428v7.314286z" fill="#2BC27E" p-id="2304"></path></svg>